{"title":"Pregnancy.Pact.2010.RERiP.DVDRip.XviD-SPRiNTER","uid":6158423,"size":752507333,"categoryP":"video","categoryS":"movies","magnet":"?xt=urn:btih:b79fd4ab9ea249dcd0368c6ea85f5b95208e605f&amp;dn=Pregnancy.Pact.2010.RERiP.DVDRip.XviD-SPRiNTER&amp;tr=udp%3A%2F%2Ftracker.openbittorrent.com%3A80&amp;tr=udp%3A%2F%2Fopen.demonii.com%3A1337&amp;tr=udp%3A%2F%2Ftracker.coppersurfer.tk%3A6969&amp;tr=udp%3A%2F%2Fexodus.desync.com%3A6969","seeders":1,"leechers":0,"uploader":"sceneline","files":55,"time":1297121925,"description":" &lt;a href=&quot;http://www.torrentkit.com&quot; rel=&quot;nofollow&quot; target=&quot;_NEW&quot;&gt;http://www.torrentkit.com&lt;/a&gt;  \n\nwho care what we share? support us by seeding back,\nand don\\\\\\'t forget to visit\n\n---------------------------------------------------------------------------\n\n &lt;a href=&quot;\nhttp://blogs.glam.com/glambuzz/files/2010/01/ppLV.jpg&quot; rel=&quot;nofollow&quot; target=&quot;_NEW&quot;&gt;\nhttp://blogs.glam.com/glambuzz/files/2010/01/ppLV.jpg&lt;/a&gt;\n\n\nPregnancy.Pact.2010.RERiP.DVDRip.XviD-SPRiNTER\n\n\n\nIMDB:\n &lt;a href=&quot;\nhttp://www.imdb.com/title/tt1528227&quot; rel=&quot;nofollow&quot; target=&quot;_NEW&quot;&gt;\nhttp://www.imdb.com/title/tt1528227&lt;/a&gt;\n\nSubtitles: N/A\nDate: 2011.02\nGenre: Biography | Drama\n\n[note]\n\nDidn\\'t notice that the crop varies a bit in this flick (by 1px)\nOf course it should have been cropped to the widest frame, which it is now\n\n[plot]\nInspired by the true story of teenagers at Gloucester (Mass.) High School who agreed to get pregnant at the same time. \n\n\n[details]\n\nFormat: AVI\nFormat/Info: Audio Video Interleave\nFile size: 701 MiB\nDuration: 1h 26mn\nOverall bit rate: 1 138 Kbps\nWriting application: VirtualDubMod 1.5.10.2 (build 2540/release)\nWriting library: VirtualDubMod build 2540/release\n\nVideo\nID: 0\nFormat: MPEG-4 Visual\nFormat profile: Advanced Simple@L5\nFormat settings, BVOP: Yes\nFormat settings, QPel: No\nFormat settings, GMC: No warppoints\nFormat settings, Matrix: Default (H.263)\nCodec ID: XVID\nCodec ID/Hint: XviD\nDuration: 1h 26mn\nBit rate: 996 Kbps\nWidth: 608 pixels\nHeight: 336 pixels\nDisplay aspect ratio: 16:9\nFrame rate: 23.976 fps\nColor space: YUV\nChroma subsampling: 4:2:0\nBit depth: 8 bits\nScan type: Progressive\nBits/(Pixel*Frame): 0.203\nStream size: 614 MiB (87%)\nWriting library: XviD 1.1.2 (UTC 2006-11-01)\n\nAudio\nID: 1\nFormat: MPEG Audio\nFormat version: Version 1\nFormat profile: Layer 3\nCodec ID: 55\nCodec ID/Hint: MP3\nDuration: 1h 26mn\nBit rate mode: Variable\nBit rate: 130 Kbps\nMinimum bit rate: 128 Kbps\nChannel(s): 2 channels\nSampling rate: 48.0 KHz\nStream size: 79.8 MiB (11%)\nAlignment: Aligned on interleaves\nInterleave, duration: 24 ms (0.58 video frame)\nInterleave, preload duration: 143 ms\nWriting library: LAME3.95\nEncoding settings: -m s -V 6 -q 3 -lowpass 16 --vbr-old -b 128[/b]\n\n\n\n\n----------------------------------------------------------------------------\n &lt;a href=&quot;\nhttp://www.torrentkit.com&quot; rel=&quot;nofollow&quot; target=&quot;_NEW&quot;&gt;\nhttp://www.torrentkit.com&lt;/a&gt; thanks for supporting with server cast,","torrent":{"xt":"urn:btih:b79fd4ab9ea249dcd0368c6ea85f5b95208e605f","amp;dn":"Pregnancy.Pact.2010.RERiP.DVDRip.XviD-SPRiNTER","amp;tr":["udp%3A%2F%2Ftracker.openbittorrent.com%3A80","udp%3A%2F%2Fopen.demonii.com%3A1337","udp%3A%2F%2Ftracker.coppersurfer.tk%3A6969","udp%3A%2F%2Fexodus.desync.com%3A6969"],"infoHash":"b79fd4ab9ea249dcd0368c6ea85f5b95208e605f","infoHashBuffer":{"type":"Buffer","data":[183,159,212,171,158,162,73,220,208,54,140,110,168,95,91,149,32,142,96,95]},"announce":[],"urlList":[]}}